# xmcd
#
# Track frame offsets: 
#        150
#        10862
#        23539
#        37999
#        53411
#        65431
#        80871
#        91048
#        103483
#        115793
#        127403
#        142170
#
# Disc length: 2005 seconds
#
# Revision: 0
# Processed by: cddbd v1.5.2PL0 Copyright (c) Steve Scherf et al.
# Submitted via: ExactAudioCopy v0.99pb4
#
DISCID=9f07d30c
DTITLE=Surefire - The Old, Old House
DYEAR=2007
DGENRE=Bluegrass
TTITLE0=Room at the Top of the Stairs
TTITLE1=The Old, Old House
TTITLE2=Prayer Bells of Heaven
TTITLE3=The Hard Game of Love
TTITLE4=Crying Holy
TTITLE5=Rose Colored Glasses
TTITLE6=Pike County Breakdown
TTITLE7=Little Maggie
TTITLE8=Julie Ann
TTITLE9=I'll Never Shed Another Tear
TTITLE10=She's Walking Through My Memory
TTITLE11=I'll Wear a White Robe
EXTD=
EXTT0=
EXTT1=
EXTT2=
EXTT3=
EXTT4=
EXTT5=
EXTT6=
EXTT7=
EXTT8=
EXTT9=
EXTT10=
EXTT11=
PLAYORDER=
